<?xml version="1.0" encoding="UTF-8"?>
<svg id="Layer_2" data-name="Layer 2" xmlns="http://www.w3.org/2000/svg" viewBox="0 0 90.88 109">
  <g id="Layer_1-2" data-name="Layer 1">
    <g>
      <path class="cls-1" d="M26.07,98.72c-4.95-5.62-8.17-12.47-9.31-19.82-1.31-8.42.22-16.87,4.42-24.45l.02-.03s0-.01.01-.02l13.57-23.51c.24-.41.68-.67,1.16-.67s.92.25,1.16.67l16.95,29.35c2.83,4.9,3.57,10.57,2.07,15.96-1.28,4.62-4.12,8.69-7.93,11.46,2.11.84,4.37,1.26,6.74,1.26,7.27,0,13.65-4.13,16.64-10.78,0,0,0,0,0,0,2.43-5.39,2.12-11.43-.85-16.57l-3.37-5.84s-.02-.03-.02-.04h0c-.1-.18-.19-.35-.29-.52L35.95,1.34,4.87,55.17c-6.49,11.24-6.49,24.65,0,35.89,6.49,11.24,18.11,17.94,31.08,17.94,1.4,0,2.78-.08,4.15-.23-5.34-2.21-10.13-5.63-14.03-10.06Z"/>
      <path class="cls-1" d="M86.01,55.17L54.16,0h-15.89l31.08,53.83c.11.19.22.38.32.57,0,0,0,.01,0,.02l3.36,5.82c3.4,5.89,3.76,12.82.97,19-1.62,3.59-4.18,6.65-7.41,8.83-3.42,2.31-7.45,3.53-11.67,3.53-3.63,0-7.05-.87-10.14-2.59-4.87-2.71-8.53-7.37-10.04-12.81-1.49-5.39-.76-11.06,2.07-15.96l7.07-12.24-7.95-13.76-12.41,21.49v.02c-3.92,7.05-5.35,14.92-4.13,22.74,1.06,6.84,4.06,13.23,8.67,18.46,4.73,5.37,10.85,9.14,17.7,10.91,2.95.76,6.03,1.15,9.16,1.15,9.89,0,19.06-3.88,25.82-10.94h0c5.22-5.45,8.69-12.54,9.76-19.96,1.14-7.92-.41-15.85-4.5-22.93Z"/>
    </g>
  </g>
</svg>