<?xml version="1.0" encoding="UTF-8"?>
<svg id="Layer_2" data-name="Layer 2" xmlns="http://www.w3.org/2000/svg" viewBox="0 0 101.3 116.45">
  <g id="Layer_1-2" data-name="Layer 1">
    <path class="cls-1" d="M101.26,57.91v-28.02c0-.55-.3-1.06-.77-1.34l-24.38-14.08s-.08-.06-.12-.09L51.44.21c-.24-.14-.52-.21-.79-.21s-.55.06-.79.21L.77,28.55c-.47.28-.77.79-.77,1.34v56.68c0,.55.3,1.06.77,1.34l49.09,28.34c.24.14.5.21.77.21s.54-.07.77-.21l24.5-14.14s.06-.02.09-.04l24.54-14.17c.48-.28.77-.79.77-1.34v-28.34c0-.11-.02-.21-.04-.31ZM4.67,58.22l22.23-12.84c.48-.28.77-.78.77-1.34v-25.66l21.46,12.38v26.56l-23,13.28-21.46-12.39ZM73.67,98.05l-22.23-12.83c-.24-.14-.5-.21-.77-.21s-.54.07-.77.21l-22.23,12.83v-24.78l23-13.28,23,13.28v24.78ZM75.22,70.6l-23-13.28v-26.56l21.46-12.38v25.66c0,.56.3,1.06.77,1.34l22.23,12.84-21.45,12.39Z"/>
  </g>
</svg>