<svg xmlns="http://www.w3.org/2000/svg" xmlns:xlink="http://www.w3.org/1999/xlink" version="1.1" x="0px" y="0px" viewBox="0 0 100 125" enable-background="new 0 0 100 100" xml:space="preserve"><g><path d="M54.443,57.648l-12.065-6.959V36.712L29.1,29.096l-13.278,7.667v29.264l25.343,14.621l13.278-7.666V57.648L54.443,57.648z    M39.952,50.682l-9.639,5.566v-11.12l9.639-5.566V50.682z M41.165,63.914l-9.63-5.561l9.638-5.564l9.632,5.561L41.165,63.914z    M29.1,31.897l9.497,5.636l-9.507,5.489l-9.63-5.56L29.1,31.897z M18.247,64.626V39.562l9.64,5.566V59.1l12.065,6.916v11.131   L18.247,64.626z M42.378,77.146V66.025l9.64-5.563v11.12L42.378,77.146z"/><path d="M84.178,27.015l-13.281-7.664L45.557,33.992v15.332L70.9,63.947l13.277-7.646V27.015z M49.196,34.691l21.628-12.498   l9.715,5.523L58.857,40.232L49.196,34.691z M47.983,36.793l9.639,5.567v11.128l-9.639-5.565V36.793z M61.271,55.585l0.011-0.007   h-0.003l8.408-4.854v9.721L61.271,55.585z M81.753,54.88l-9.64,5.565V46.523l-12.065,6.965V42.359L81.753,29.82V54.88z"/></g></svg>