<svg xmlns="http://www.w3.org/2000/svg" xmlns:xlink="http://www.w3.org/1999/xlink" version="1.1" x="0px" y="0px" viewBox="0 0 68 85" style="enable-background:new 0 0 68 68;" xml:space="preserve"><g><g><g><path d="M33.9997559,57.6191406c-0.5522461,0-1-0.4472656-1-1v-4.9833984c0-0.5527344,0.4477539-1,1-1s1,0.4472656,1,1v4.9833984     C34.9997559,57.171875,34.552002,57.6191406,33.9997559,57.6191406z"/></g><g><path d="M33.9997559,45.1347656c-0.5522461,0-1-0.4472656-1-1v-5.4023438c0-0.5527344,0.4477539-1,1-1s1,0.4472656,1,1v5.4023438     C34.9997559,44.6875,34.552002,45.1347656,33.9997559,45.1347656z"/></g><g><path d="M8.802002,57.6191406c-0.5522461,0-1-0.4472656-1-1v-6.7021484c0-1.671875,1.359375-3.03125,3.0307617-3.03125     h15.2460938c0.5522461,0,1,0.4472656,1,1s-0.4477539,1-1,1H10.8327637c-0.5683594,0-1.0307617,0.4628906-1.0307617,1.03125     v6.7021484C9.802002,57.171875,9.354248,57.6191406,8.802002,57.6191406z"/></g><g><path d="M59.197998,57.6337891c-0.5522461,0-1-0.4472656-1-1v-6.7167969c0-0.5683594-0.4624023-1.03125-1.03125-1.03125     H41.9206543c-0.5522461,0-1-0.4472656-1-1s0.4477539-1,1-1H57.166748c1.6713867,0,3.03125,1.359375,3.03125,3.03125v6.7167969     C60.197998,57.1865234,59.7502441,57.6337891,59.197998,57.6337891z"/></g><g><path d="M38.170166,52.6367188h-8.340332c-2.6196289,0-4.7509766-2.1308594-4.7509766-4.7509766     s2.1313477-4.7509766,4.7509766-4.7509766h8.340332c2.6196289,0,4.7504883,2.1308594,4.7504883,4.7509766     S40.7897949,52.6367188,38.170166,52.6367188z M29.829834,45.1347656c-1.5170898,0-2.7509766,1.234375-2.7509766,2.7509766     s1.2338867,2.7509766,2.7509766,2.7509766h8.340332c1.5166016,0,2.7504883-1.234375,2.7504883-2.7509766     s-1.2338867-2.7509766-2.7504883-2.7509766H29.829834z"/></g><g><path d="M8.802002,66c-2.8583984,0-5.184082-2.3251953-5.184082-5.1835938c0-2.8662109,2.3256836-5.1972656,5.184082-5.1972656     s5.1835938,2.3310547,5.1835938,5.1972656C13.9855957,63.6748047,11.6604004,66,8.802002,66z M8.802002,57.6191406     c-1.7558594,0-3.184082,1.4345703-3.184082,3.1972656C5.6179199,62.5722656,7.0461426,64,8.802002,64     c1.7553711,0,3.1835938-1.4277344,3.1835938-3.1835938C11.9855957,59.0537109,10.557373,57.6191406,8.802002,57.6191406z"/></g><g><path d="M33.9997559,66c-2.8583984,0-5.1835938-2.3251953-5.1835938-5.1835938     c0-2.8662109,2.3251953-5.1972656,5.1835938-5.1972656s5.184082,2.3310547,5.184082,5.1972656     C39.1838379,63.6748047,36.8581543,66,33.9997559,66z M33.9997559,57.6191406     c-1.7553711,0-3.1835938,1.4345703-3.1835938,3.1972656C30.8161621,62.5722656,32.2443848,64,33.9997559,64     c1.7558594,0,3.184082-1.4277344,3.184082-3.1835938C37.1838379,59.0537109,35.7556152,57.6191406,33.9997559,57.6191406z"/></g><g><path d="M59.197998,66c-2.8583984,0-5.184082-2.3251953-5.184082-5.1835938c0-2.8662109,2.3256836-5.1972656,5.184082-5.1972656     s5.184082,2.3310547,5.184082,5.1972656C64.3820801,63.6748047,62.0563965,66,59.197998,66z M59.197998,57.6191406     c-1.7558594,0-3.184082,1.4345703-3.184082,3.1972656C56.013916,62.5722656,57.4421387,64,59.197998,64     s3.184082-1.4277344,3.184082-3.1835938C62.3820801,59.0537109,60.9538574,57.6191406,59.197998,57.6191406z"/></g></g><g><path d="M59.1853027,39.7324219H8.8161621c-1.4472656,0-2.625-1.1777344-2.625-2.625V4.625    c0-1.4472656,1.1777344-2.625,2.625-2.625h50.3691406c1.4472656,0,2.6245117,1.1777344,2.6245117,2.625v32.4824219    C61.8098145,38.5546875,60.6325684,39.7324219,59.1853027,39.7324219z M8.8161621,4c-0.3505859,0-0.625,0.2744141-0.625,0.625    v32.4824219c0,0.3388672,0.2861328,0.625,0.625,0.625h50.3691406c0.3383789,0,0.6245117-0.2861328,0.6245117-0.625V4.625    c0-0.3505859-0.2744141-0.625-0.6245117-0.625H8.8161621z"/></g><g><path d="M60.8098145,14.6943359H7.1911621c-0.5522461,0-1-0.4472656-1-1s0.4477539-1,1-1h53.6186523c0.5522461,0,1,0.4472656,1,1    S61.3620605,14.6943359,60.8098145,14.6943359z"/></g><g><path d="M13.1311035,9.2265625c-0.5522461,0-1.0678711-0.5146484-1.0678711-1.0673828s0.515625-1.0673828,1.0678711-1.0673828    s1.0673828,0.5146484,1.0673828,1.0673828S13.6833496,9.2265625,13.1311035,9.2265625z"/></g><g><path d="M13.1311035,21.6123047c-0.5522461,0-1.0678711-0.515625-1.0678711-1.0683594s0.515625-1.0673828,1.0678711-1.0673828    s1.0673828,0.5146484,1.0673828,1.0673828S13.6833496,21.6123047,13.1311035,21.6123047z"/></g><g><path d="M13.1311035,27.28125c-0.5522461,0-1.0678711-0.5146484-1.0678711-1.0673828s0.515625-1.0683594,1.0678711-1.0683594    s1.0673828,0.515625,1.0673828,1.0683594S13.6833496,27.28125,13.1311035,27.28125z"/></g><g><path d="M13.1311035,32.9511719c-0.5522461,0-1.0678711-0.515625-1.0678711-1.0683594s0.515625-1.0673828,1.0678711-1.0673828    s1.0673828,0.5146484,1.0673828,1.0673828S13.6833496,32.9511719,13.1311035,32.9511719z"/></g><g><path d="M17.7907715,9.2265625c-0.5522461,0-1.0673828-0.5146484-1.0673828-1.0673828s0.5151367-1.0673828,1.0673828-1.0673828    s1.0678711,0.5146484,1.0678711,1.0673828S18.3430176,9.2265625,17.7907715,9.2265625z"/></g><g><circle cx="22.4509277" cy="8.1591797" r="1.067627"/></g><g><path d="M27.111084,9.2265625c-0.5522461,0-1.0678711-0.5146484-1.0678711-1.0673828s0.515625-1.0673828,1.0678711-1.0673828    s1.0673828,0.5146484,1.0673828,1.0673828S27.6633301,9.2265625,27.111084,9.2265625z"/></g><g><path d="M54.9377441,9.2265625H44.7473145c-0.5522461,0-1-0.4472656-1-1s0.4477539-1,1-1h10.1904297c0.5522461,0,1,0.4472656,1,1    S55.4899902,9.2265625,54.9377441,9.2265625z"/></g><g><g><path d="M54.5754395,21.5439453H26.0549316c-0.5522461,0-1-0.4472656-1-1s0.4477539-1,1-1h28.5205078     c0.5522461,0,1,0.4472656,1,1S55.1276855,21.5439453,54.5754395,21.5439453z"/></g><g><path d="M54.5754395,27.2138672H26.0549316c-0.5522461,0-1-0.4472656-1-1s0.4477539-1,1-1h28.5205078     c0.5522461,0,1,0.4472656,1,1S55.1276855,27.2138672,54.5754395,27.2138672z"/></g><g><path d="M54.5754395,32.8828125H26.0549316c-0.5522461,0-1-0.4472656-1-1s0.4477539-1,1-1h28.5205078     c0.5522461,0,1,0.4472656,1,1S55.1276855,32.8828125,54.5754395,32.8828125z"/></g></g><g><g><path d="M18.786377,39.4335938c-0.5522461,0-1-0.4472656-1-1V13.6943359c0-0.5527344,0.4477539-1,1-1s1,0.4472656,1,1v24.7392578     C19.786377,38.9863281,19.338623,39.4335938,18.786377,39.4335938z"/></g></g></g></svg>