<svg class="animated-svg" width="800" height="600" viewBox="0 0 800 600" xmlns="http://www.w3.org/2000/svg">
  <rect fill="transparent" />

  <circle cx="20" cy="10" r="1" fill="white" />
  <circle cx="45" cy="20" r="1.3" fill="white" />
  <circle cx="70" cy="15" r="1.1" fill="white" />
  <circle cx="25" cy="20" r=".5" fill="white" />
  <circle cx="100" cy="150" r=".5" fill="white" />
  <circle cx="120" cy="160" r="1" fill="white" />
  <circle cx="110" cy="135" r="1.2" fill="white" />
  <circle cx="180" cy="110" r=".8" fill="white" />
  <circle cx="195" cy="100" r=".8" fill="white" />
  <circle cx="200" cy="80" r=".9" fill="white" />
  <circle cx="320" cy="240" r=".2" fill="white" />
  <circle cx="370" cy="270" r=".6" fill="white" />
  <circle cx="420" cy="290" r=".4" fill="white" />
  <circle cx="510" cy="150" r="0.6" fill="white" />
  <circle cx="630" cy="190" r=".5" fill="white" />
  <circle cx="750" cy="110" r=".4" fill="white" />
  <circle cx="220" cy="50" r="0.3" fill="white" />
  <circle cx="340" cy="140" r=".5" fill="white" />
  <circle cx="540" cy="230" r="1.2" fill="white" />
  <circle cx="460" cy="170" r="0.3" fill="white" />
  <circle cx="580" cy="270" r="1" fill="white" />
  <circle cx="610" cy="90" r="0.7" fill="white" />
  <circle cx="760" cy="250" r=".5" fill="white" />
  <circle cx="280" cy="60" r="1.3" fill="white" />
  <circle cx="130" cy="220" r="0.9" fill="white" />
  <circle cx="380" cy="50" r=".5" fill="white" />
  <circle cx="480" cy="210" r=".4" fill="white" />
  <circle cx="690" cy="130" r=".7" fill="white" />
  <circle cx="150" cy="180" r=".6" fill="white" />
  <circle cx="550" cy="320" r=".5" fill="white" />
  <circle cx="100" cy="100" r="1.1" fill="white" />
  <circle cx="200" cy="150" r="1.1" fill="white" />
  <circle cx="300" cy="80" r="1.3" fill="white" />
  <circle cx="400" cy="200" r="1.1" fill="white" />
  <circle cx="500" cy="120" r="1.3" fill="white" />
  <circle cx="600" cy="180" r="1.3" fill="white" />
  <circle cx="700" cy="100" r="1.1" fill="white" />

  <circle cx="800" cy="367" r="1.1" fill="white" />
  <circle cx="810" cy="385" r="1" fill="white" />
  <circle cx="800" cy="420" r=".9" fill="white" />
  <circle cx="900" cy="370" r="1.1" fill="white" />
  <circle cx="900" cy="390" r=".5" fill="white" />
  <circle cx="900" cy="360" r=".8" fill="white" />
  <circle cx="700" cy="365" r="1.4" fill="white" />
  <circle cx="710" cy="355" r=".4" fill="white" />

  <line x1="70" y1="15" x2="200" y2="150" stroke="white" stroke-width=".2" />
  <line x1="100" y1="100" x2="200" y2="150" stroke="white" stroke-width=".2" />
</svg>
