<svg xmlns="http://www.w3.org/2000/svg" version="1.1" viewBox="-5.0 -10.0 110.0 135.0">
 <path d="m58.32 43.797v-2.7305c0-4.5859-3.7305-8.3203-8.3203-8.3203-4.5859 0-8.3203 3.7305-8.3203 8.3203v2.7305c-1.9414 0.085937-3.4961 1.6875-3.4961 3.6523v11.555c0 2.0195 1.6406 3.6602 3.6602 3.6602h16.309c2.0195 0 3.6602-1.6406 3.6602-3.6602l0.003906-11.555c0-1.9648-1.5547-3.5664-3.4961-3.6523zm-8.3203-9.0312c3.4766 0 6.3008 2.8281 6.3008 6.3008v2.7227h-12.602v-2.7227c0-3.4766 2.8242-6.3008 6.3008-6.3008zm9.7969 24.238c0 0.90625-0.73828 1.6445-1.6445 1.6445l-16.309-0.003907c-0.90625 0-1.6445-0.73828-1.6445-1.6445l0.003906-11.551c0-0.90625 0.73828-1.6445 1.6445-1.6445h16.309c0.90625 0 1.6445 0.73828 1.6445 1.6445zm-8.7891-7.9492v4.3398c0 0.55859-0.45312 1.0078-1.0078 1.0078-0.55859 0-1.0078-0.45312-1.0078-1.0078v-4.3398c0-0.55859 0.45312-1.0078 1.0078-1.0078 0.55859 0 1.0078 0.44922 1.0078 1.0078zm34.684 14.559c-5.5664 0-10.152 4.2695-10.664 9.7031h-8.2617l-3.8477-5.1289 10.52-6.0742c0.3125-0.17969 0.50391-0.51172 0.50391-0.875v-26.48c0-0.35937-0.19141-0.69141-0.50391-0.875l-10.52-6.0742 3.8477-5.1289h8.2617c0.51172 5.4336 5.0977 9.7031 10.664 9.7031 5.9062 0 10.711-4.8047 10.711-10.711 0-5.9023-4.8047-10.711-10.711-10.711-5.5664 0-10.152 4.2695-10.664 9.7031h-8.7656c-0.31641 0-0.61719 0.14844-0.80859 0.40234l-4.2969 5.7266-10.656-6.1523c-0.3125-0.17969-0.69531-0.17969-1.0078 0l-10.652 6.1523-4.2969-5.7266c-0.19141-0.25391-0.48828-0.40234-0.80859-0.40234h-8.7617c-0.51172-5.4336-5.0977-9.7031-10.664-9.7031-5.9062 0-10.711 4.8047-10.711 10.711s4.8047 10.711 10.711 10.711c5.5664 0 10.152-4.2695 10.664-9.7031h8.2617l3.8477 5.1289-10.52 6.0742c-0.3125 0.17969-0.50391 0.51172-0.50391 0.875v26.48c0 0.35938 0.19141 0.69531 0.50391 0.875l10.52 6.0742-3.8477 5.1289h-8.2617c-0.51172-5.4336-5.0977-9.7031-10.664-9.7031-5.9062 0-10.711 4.8047-10.711 10.711s4.8047 10.711 10.711 10.711c5.5664 0 10.152-4.2695 10.664-9.7031h8.7656c0.31641 0 0.61719-0.14844 0.80859-0.40234l4.2969-5.7266 10.656 6.1523c0.15234 0.089843 0.32422 0.13281 0.5 0.13281s0.34766-0.046875 0.50391-0.13672l10.652-6.1484 4.2969 5.7266c0.19141 0.25391 0.48828 0.40234 0.80859 0.40234h8.7656c0.51172 5.4336 5.0977 9.7031 10.664 9.7031 5.9062 0 10.711-4.8047 10.711-10.711s-4.8047-10.711-10.711-10.711zm0-50.633c4.793 0 8.6953 3.8984 8.6953 8.6953 0 4.793-3.8984 8.6953-8.6953 8.6953-4.793 0-8.6953-3.8984-8.6953-8.6953s3.9023-8.6953 8.6953-8.6953zm-71.383 17.387c-4.793 0-8.6953-3.8984-8.6953-8.6953 0-4.793 3.8984-8.6953 8.6953-8.6953 4.793 0 8.6953 3.8984 8.6953 8.6953s-3.9023 8.6953-8.6953 8.6953zm0 52.652c-4.793 0-8.6953-3.8984-8.6953-8.6953 0-4.793 3.8984-8.6953 8.6953-8.6953 4.793 0 8.6953 3.8984 8.6953 8.6953s-3.9023 8.6953-8.6953 8.6953zm35.691-9.7031-21.926-12.66v-25.316l21.926-12.656 21.926 12.656v25.316zm35.691 9.7031c-4.793 0-8.6953-3.8984-8.6953-8.6953 0-4.793 3.8984-8.6953 8.6953-8.6953 4.793 0 8.6953 3.8984 8.6953 8.6953s-3.9023 8.6953-8.6953 8.6953z"/></svg>