<svg xmlns="http://www.w3.org/2000/svg" version="1.1" viewBox="-5.0 -10.0 110.0 135.0">
 <path d="m50 10.633c-12.891 0-23.43 10.531-23.43 23.426l0.003907 11.664h-2.2188c-1.9922 0-3.5938 1.6055-3.5938 3.5938v36.453c0 1.9922 1.6016 3.5938 3.5938 3.5938l51.285 0.003907c1.9922 0 3.5977-1.6055 3.5977-3.5938v-36.453c0-1.9922-1.6055-3.5938-3.5977-3.5938l-2.2148-0.003906v-11.664c0-12.891-10.531-23.426-23.422-23.426zm0 9.9961c7.5234 0 13.43 5.9023 13.43 13.43v11.664h-26.855v-11.664c0-7.5234 5.9023-13.43 13.426-13.43zm0.10547 38.023h0.003906c1.6992 0.039062 3.2266 1.0547 3.9297 2.6016 0.99609 2.2109 0.03125 4.8125-2.1641 5.8359v11.707c0 1.0391-0.83594 1.8711-1.875 1.875-1.0391 0-1.8711-0.83594-1.8711-1.875v-11.707c-0.96094-0.44922-1.7266-1.2227-2.1641-2.1875-1.0078-2.2305-0.015625-4.8516 2.2109-5.8594 0.60547-0.27344 1.2656-0.40625 1.9336-0.39062z"/>
</svg>