<svg xmlns="http://www.w3.org/2000/svg" xmlns:xlink="http://www.w3.org/1999/xlink" version="1.1" x="0px" y="0px" viewBox="0 0 32 40" style="enable-background:new 0 0 32 32;" xml:space="preserve"><g><path d="M12.534,5.908c-0.427-0.255-0.979-0.119-1.235,0.307c-0.787,1.309-1.259,3.534-1.259,4.928   c0,2.335,1.353,4.355,3.313,5.332l-0.688,6.734c-0.096,0.941,0.213,1.884,0.847,2.586C14.147,26.497,15.054,26.9,16,26.9   s1.853-0.403,2.487-1.105c0.634-0.702,0.942-1.645,0.847-2.586l-0.688-6.734c1.96-0.977,3.313-2.997,3.313-5.332   c0-1.395-0.472-3.619-1.259-4.928c-0.257-0.426-0.811-0.562-1.235-0.307c-0.426,0.256-0.563,0.809-0.308,1.235   c0.6,0.995,1.001,2.872,1.001,4c0,1.984-1.398,3.642-3.259,4.055v-8.52c0-0.497-0.403-0.9-0.9-0.9s-0.9,0.403-0.9,0.9v8.52   c-1.861-0.413-3.259-2.072-3.259-4.055c0-1.128,0.401-3.005,1.001-4C13.098,6.717,12.96,6.164,12.534,5.908z M15.099,17.103h1.803   l0.642,6.289c0.045,0.442-0.094,0.868-0.392,1.197c-0.596,0.66-1.707,0.66-2.303,0c-0.298-0.33-0.437-0.755-0.392-1.197   L15.099,17.103z"/></g></svg>