<svg xmlns="http://www.w3.org/2000/svg" version="1.1" viewBox="-5.0 -10.0 110.0 135.0">
 <path d="m21.562 36.996c0.59766 0.25 0.88281 0.93359 0.63281 1.5312-1.5078 3.6406-2.2734 7.5-2.2734 11.473 0 0.64844-0.52344 1.1875-1.1719 1.1875s-1.1719-0.50781-1.1719-1.1562v-0.03125c0-4.2812 0.82422-8.4414 2.4531-12.367 0.24609-0.60156 0.92969-0.87891 1.5312-0.63281zm6.3203-7.8789c0.30078 0 0.60156-0.11328 0.82813-0.34375 2.8086-2.8164 6.082-5.0195 9.7344-6.543 0.59766-0.25 0.87891-0.9375 0.62891-1.5352-0.25-0.59766-0.93359-0.87891-1.5312-0.62891-3.9336 1.6445-7.4648 4.0156-10.492 7.0508-0.45703 0.45703-0.45703 1.1992 0.003907 1.6562 0.23047 0.22656 0.52734 0.34375 0.82812 0.34375zm52.199 20.883c0 3.9492-0.75781 7.7891-2.25 11.418-0.24609 0.59766 0.039063 1.2852 0.63672 1.5273 0.14453 0.0625 0.29688 0.089844 0.44531 0.089844 0.46094 0 0.89844-0.27344 1.0859-0.72656 1.6094-3.9141 2.4258-8.0547 2.4258-12.309v-0.097656c0-0.64844-0.52344-1.125-1.1719-1.125-0.64844 0-1.1719 0.57031-1.1719 1.2188zm-2.3203-11.582c0.1875 0.44922 0.625 0.71875 1.082 0.71875 0.14844 0 0.30469-0.027344 0.45312-0.089844 0.59766-0.25 0.87891-0.93359 0.62891-1.5352-1.6484-3.9336-4.0234-7.457-7.0625-10.484-0.46094-0.45703-1.2031-0.45703-1.6562 0.003906-0.45703 0.46094-0.45312 1.1992 0.003907 1.6562 2.8203 2.8086 5.0273 6.082 6.5547 9.7305zm-27.758-18.496c3.957 0 7.8086 0.76172 11.445 2.2617 0.14844 0.058594 0.29688 0.089844 0.44531 0.089844 0.46094 0 0.89844-0.27344 1.0859-0.72656 0.24609-0.59766-0.039063-1.2852-0.63672-1.5312-3.9219-1.6172-8.0703-2.4375-12.34-2.4375h-0.0625c-0.64844 0-1.1406 0.52344-1.1406 1.1719s0.55859 1.1719 1.2031 1.1719zm-27.781 41.605c-0.24609-0.59766-0.93359-0.87891-1.5312-0.63281-0.59766 0.25-0.87891 0.93359-0.63281 1.5312 1.6406 3.9375 4.0078 7.4688 7.0391 10.5 0.23047 0.23047 0.52734 0.34375 0.82812 0.34375s0.60156-0.11328 0.82812-0.34375c0.45703-0.45703 0.45703-1.1992 0-1.6562-2.8164-2.8125-5.0117-6.0898-6.5352-9.7422zm49.113 9.6523c-2.8008 2.8203-6.0742 5.0312-9.7227 6.5625-0.59766 0.25-0.875 0.9375-0.625 1.5352 0.1875 0.44531 0.625 0.71875 1.082 0.71875 0.15234 0 0.30469-0.027344 0.45313-0.089844 3.9297-1.6523 7.457-4.0352 10.477-7.0742 0.45703-0.46094 0.45312-1.1992-0.007812-1.6562-0.45703-0.45703-1.2031-0.45312-1.6562 0.007813zm-21.332 8.8945c-3.9805 0-7.8477-0.76953-11.5-2.2852-0.60156-0.25-1.2852 0.035157-1.5312 0.63281s0.035156 1.2852 0.63281 1.5312c3.9375 1.6367 8.1094 2.4648 12.398 2.4648h0.12891c0.64844 0 1.1094-0.52344 1.1094-1.1719 0-0.64844-0.58984-1.1719-1.2344-1.1719zm-44.926-66.793c0-4.5234 3.6797-8.2031 8.2031-8.2031s8.2031 3.6797 8.2031 8.2031c0 1.8398-0.62891 3.5195-1.6562 4.8906l4.4375 4.4375c0.45703 0.45703 0.45703 1.1992 0 1.6562-0.23047 0.23047-0.52734 0.34375-0.82812 0.34375s-0.60156-0.11328-0.82812-0.34375l-4.4375-4.4375c-1.3711 1.0273-3.0508 1.6562-4.8906 1.6562-4.5234 0-8.2031-3.6797-8.2031-8.2031zm2.3438 0c0 3.2305 2.6289 5.8594 5.8594 5.8594s5.8594-2.6289 5.8594-5.8594-2.6289-5.8594-5.8594-5.8594-5.8594 2.6289-5.8594 5.8594zm68.172 10.844c-0.45703-0.45703-0.45703-1.1992 0-1.6562l4.4375-4.4375c-1.0273-1.3711-1.6602-3.0547-1.6602-4.8945 0-4.5234 3.6797-8.2031 8.2031-8.2031 4.5234 0 8.2031 3.6797 8.2031 8.2031 0 4.5234-3.6797 8.2031-8.2031 8.2031-1.8359 0-3.5156-0.62891-4.8828-1.6523l-4.4375 4.4375c-0.23047 0.23047-0.52734 0.34375-0.82812 0.34375s-0.60156-0.11328-0.82812-0.34375zm5.1211-10.992c0 3.2305 2.6289 5.8594 5.8594 5.8594s5.8594-2.6289 5.8594-5.8594c0-3.2305-2.6289-5.8594-5.8594-5.8594s-5.8594 2.6289-5.8594 5.8594zm14.211 73.289c0 4.5234-3.6797 8.2031-8.2031 8.2031-4.5234 0-8.2031-3.6797-8.2031-8.2031 0-1.8398 0.63281-3.5234 1.6562-4.8906l-4.4414-4.4414c-0.45703-0.45703-0.45703-1.1992 0-1.6562 0.45703-0.45703 1.1992-0.45703 1.6562 0l4.4414 4.4414c1.3672-1.0234 3.0508-1.6562 4.8867-1.6562 4.5234 0 8.2031 3.6797 8.2031 8.2031zm-2.3438 0c0-3.2305-2.6289-5.8594-5.8594-5.8594-3.2305 0-5.8594 2.6289-5.8594 5.8594s2.6289 5.8594 5.8594 5.8594c3.2305 0 5.8594-2.6289 5.8594-5.8594zm-68.172-10.832c0.45703 0.45703 0.45703 1.1992 0 1.6562l-4.4297 4.4336c1.0273 1.3711 1.6562 3.0508 1.6562 4.8906 0 4.5234-3.6797 8.2031-8.2031 8.2031-4.5234 0-8.2031-3.6797-8.2031-8.2031 0-4.5234 3.6797-8.2031 8.2031-8.2031 1.8398 0 3.5195 0.62891 4.8906 1.6562l4.4297-4.4336c0.45703-0.45703 1.1992-0.45703 1.6562 0zm-5.1211 10.98c0-3.2305-2.6289-5.8594-5.8594-5.8594-3.2305 0-5.8594 2.6289-5.8594 5.8594 0 3.2305 2.6289 5.8594 5.8594 5.8594 3.2305 0 5.8594-2.6289 5.8594-5.8594zm41.926-18.594-2.5508-1.8203c-1.0703 0.57812-2.1992 1.0469-3.3711 1.3984l-0.52344 3.1016c-0.20312 1.2109-1.2148 2.1445-2.457 2.2695-0.78516 0.078125-1.543 0.11719-2.3164 0.11719-0.77344 0-1.5312-0.039063-2.3125-0.11719-1.2422-0.125-2.2539-1.0586-2.457-2.2695l-0.52344-3.1016c-1.1719-0.35547-2.3008-0.82422-3.3711-1.3984l-2.5508 1.8203c-1.0039 0.71484-2.3594 0.68359-3.293-0.078124-1.2383-1.0078-2.3789-2.1484-3.3945-3.3945-0.76172-0.9375-0.79688-2.2891-0.082031-3.293l1.8164-2.5469c-0.57812-1.0742-1.0469-2.2031-1.3984-3.3711l-3.1016-0.52344c-1.2148-0.20312-2.1484-1.2148-2.2695-2.457-0.078125-0.78125-0.11719-1.5352-0.11719-2.3125s0.039063-1.5352 0.11719-2.3164c0.12109-1.2422 1.0586-2.25 2.2695-2.457l3.1016-0.52344c0.35156-1.1719 0.82031-2.3008 1.3984-3.3711l-1.8164-2.5469c-0.71484-1.0039-0.68359-2.3555 0.082031-3.293 1.0156-1.2461 2.1562-2.3867 3.3945-3.3945 0.93359-0.76172 2.2891-0.79297 3.293-0.078125l2.5508 1.8203c1.0703-0.57812 2.1992-1.0469 3.3711-1.3984l0.52344-3.1016c0.20313-1.2109 1.2148-2.1445 2.457-2.2695 0.78516-0.078124 1.543-0.11719 2.3164-0.11719 0.53516 0 1.3281 0.046875 2.3516 0.14453 1.2305 0.11719 2.2305 1.0547 2.4336 2.2734l0.50781 3.0703c1.1719 0.35156 2.2969 0.82031 3.3672 1.3984l2.5508-1.8203c1.0039-0.71484 2.3594-0.68359 3.293 0.078125 1.2383 1.0078 2.3789 2.1484 3.3945 3.3945 0.76172 0.9375 0.79687 2.2891 0.082031 3.293l-1.8164 2.5469c0.57813 1.0742 1.0469 2.2031 1.3984 3.3711l3.1016 0.52344c1.2148 0.20313 2.1484 1.2148 2.2695 2.457 0.078125 0.78125 0.11719 1.5352 0.11719 2.3125s-0.039062 1.5352-0.11719 2.3164c-0.12109 1.2422-1.0586 2.25-2.2695 2.457l-3.1016 0.52344c-0.35156 1.1719-0.82031 2.3008-1.3984 3.3711l1.8164 2.5469c0.71484 1.0039 0.68359 2.3555-0.082031 3.293-1.0156 1.2461-2.1562 2.3867-3.3945 3.3945-0.93359 0.76172-2.2891 0.79297-3.293 0.078124zm-1.7969-4.1602 3.1562 2.2539c0.14453 0.10156 0.33203 0.10547 0.45312 0.007813 1.1133-0.90625 2.1406-1.9336 3.0547-3.0547 0.09375-0.11719 0.089844-0.30859-0.011719-0.45313l-2.2539-3.1562c-0.26953-0.37891-0.29297-0.87891-0.054687-1.2773 0.76953-1.2969 1.3516-2.6992 1.7305-4.1719 0.11328-0.44922 0.48437-0.78906 0.94141-0.86328l3.8359-0.64844c0.17578-0.03125 0.30859-0.17969 0.32812-0.37891 0.070313-0.70312 0.10547-1.3828 0.10547-2.082 0-0.69922-0.035156-1.3789-0.10547-2.0781-0.019531-0.19922-0.15234-0.34766-0.32812-0.37891l-3.8359-0.64844c-0.45703-0.078125-0.82422-0.41406-0.94141-0.86328-0.375-1.4688-0.95703-2.8711-1.7305-4.1719-0.23828-0.39844-0.21484-0.89844 0.054687-1.2773l2.2539-3.1562c0.10156-0.14062 0.10547-0.33594 0.011719-0.45312-0.91406-1.1211-1.9414-2.1484-3.0547-3.0547-0.11719-0.097656-0.30859-0.089844-0.45312 0.007813l-3.1562 2.2539c-0.37891 0.27344-0.87891 0.28906-1.2812 0.054687-1.293-0.76953-2.6992-1.3516-4.168-1.7305-0.44922-0.11719-0.78906-0.48438-0.86328-0.94531l-0.62891-3.8047c-0.027343-0.17578-0.17187-0.30859-0.34375-0.32422-0.9375-0.089844-1.6758-0.13672-2.1328-0.13672-0.69531 0-1.3789 0.035156-2.082 0.10547-0.19531 0.019531-0.34766 0.15234-0.375 0.32812l-0.64844 3.8359c-0.078125 0.45703-0.41406 0.82422-0.86328 0.94141-1.4727 0.375-2.875 0.96094-4.168 1.7305-0.39844 0.23828-0.89844 0.21875-1.2812-0.054687l-3.1562-2.2539c-0.14062-0.10156-0.33203-0.10547-0.45312-0.007813-1.1133 0.90625-2.1406 1.9336-3.0547 3.0547-0.09375 0.11719-0.089844 0.30859 0.011719 0.45312l2.2539 3.1562c0.26953 0.37891 0.29297 0.87891 0.054687 1.2773-0.76953 1.2969-1.3516 2.6992-1.7305 4.1719-0.11328 0.44922-0.48437 0.78906-0.94141 0.86328l-3.8359 0.64844c-0.17578 0.03125-0.30859 0.17969-0.32812 0.37891-0.070313 0.70313-0.10547 1.3828-0.10547 2.082 0 0.69922 0.035156 1.3789 0.10547 2.0781 0.019531 0.19922 0.15234 0.34766 0.32812 0.37891l3.8359 0.64844c0.45703 0.078126 0.82422 0.41406 0.94141 0.86328 0.375 1.4688 0.95703 2.8711 1.7305 4.1719 0.23828 0.39844 0.21484 0.89844-0.054687 1.2773l-2.2539 3.1562c-0.10156 0.14063-0.10547 0.33594-0.011719 0.45313 0.91406 1.1211 1.9414 2.1484 3.0547 3.0547 0.11719 0.097656 0.30859 0.089844 0.45312-0.007813l3.1562-2.2539c0.20312-0.14453 0.44141-0.21875 0.67969-0.21875 0.20703 0 0.41406 0.054688 0.59766 0.16406 1.293 0.76953 2.6992 1.3516 4.168 1.7305 0.44922 0.11719 0.78906 0.48437 0.86328 0.94141l0.64844 3.8359c0.03125 0.17578 0.17969 0.30859 0.37891 0.32812 1.4062 0.14062 2.7539 0.14062 4.1641 0 0.19531-0.019531 0.34766-0.15234 0.375-0.32812l0.64844-3.8359c0.078125-0.45703 0.41406-0.82422 0.86328-0.94141 1.4727-0.375 2.875-0.96094 4.168-1.7305 0.40234-0.23438 0.90234-0.21484 1.2812 0.054687zm-0.43359-13.82c0 4.9531-4.0312 8.9844-8.9844 8.9844s-8.9844-4.0312-8.9844-8.9844 4.0312-8.9844 8.9844-8.9844 8.9844 4.0312 8.9844 8.9844zm-2.3438 0c0-3.6641-2.9805-6.6406-6.6406-6.6406s-6.6406 2.9766-6.6406 6.6406c0 3.6641 2.9805 6.6406 6.6406 6.6406s6.6406-2.9766 6.6406-6.6406z"/></svg>