<svg xmlns="http://www.w3.org/2000/svg" version="1.1" viewBox="-5.0 -10.0 110.0 135.0">
 <path d="m91.289 8.2109-0.14062-1.0195-1.0195-0.14844c-1.1211-0.16016-2.2695-0.26172-3.4297-0.30859-0.57812-0.019531-1.1719-0.03125-1.7617-0.019531-5.3086 0.054687-10.949 1.2852-16.578 3.5938-2.5 1.0312-5 2.2695-7.4609 3.7109-0.011719 0-0.011719 0.011719-0.019532 0.011719l-0.80859 0.48047v0.019531c-5.0195 3.0508-9.7383 6.8516-14.039 11.328-0.83984 0.87109-1.6797 1.8086-2.5195 2.7695-8.6797-0.73047-17.141 2.4883-23.301 8.9102l-0.91016 0.94141 13.121 13.672-3.5312 3.6719 1.3594 1.4219c-3.3281 1.5703-6.5703 3.7812-9.4805 6.4609-0.64062 0.58984-1.25 1.1914-1.8086 1.7812-7.5312 7.832-11.5 17.961-10.383 26.434l0.14062 1.0195 1.0195 0.14844c0.92188 0.12891 1.8594 0.19922 2.8086 0.19922 7.5312 0 15.98-4.0508 22.672-11.02 0.57031-0.60156 1.1484-1.2305 1.7109-1.8906 2.5508-3 4.6484-6.3398 6.1484-9.7695l1.332 1.3906 3.5312-3.6719 1.7188 1.7891 11.398 11.871 0.98047-1.0195c6.1602-6.4219 9.2383-15.23 8.5312-24.25 0.92969-0.87891 1.8281-1.7617 2.6914-2.6484 4.2891-4.4609 7.9297-9.3711 10.852-14.59h0.019531l0.48047-0.89844c5.5352-10.254 7.9062-21.031 6.6758-30.371zm-2.4297 6.2383c-0.011719 0.23828-0.019531 0.48047-0.039063 0.71875-0.019531 0.30859-0.03125 0.62891-0.050781 0.94141-0.019531 0.25-0.050781 0.5-0.070312 0.75-0.03125 0.30859-0.050781 0.62109-0.089844 0.92969-0.03125 0.26172-0.070313 0.51172-0.10156 0.76953-0.039062 0.30859-0.078124 0.60938-0.12891 0.92188-0.039062 0.26172-0.089844 0.53125-0.12891 0.78906-0.050781 0.30078-0.10156 0.60938-0.16016 0.92188-0.050782 0.26953-0.10938 0.53906-0.17188 0.80859-0.058594 0.30078-0.12891 0.60938-0.19922 0.91016-0.058594 0.26953-0.12891 0.55078-0.19922 0.82031-0.070312 0.30078-0.14844 0.60156-0.23047 0.91016-0.070312 0.28125-0.14844 0.55078-0.23047 0.82812-0.089844 0.30078-0.17188 0.60156-0.26172 0.91016-0.078125 0.28125-0.17188 0.55859-0.26172 0.83984-0.10156 0.30078-0.19922 0.60156-0.30078 0.91016-0.10156 0.28125-0.19922 0.55859-0.30078 0.83984-0.10938 0.30078-0.21875 0.60156-0.32812 0.91016-0.10938 0.28125-0.21875 0.55859-0.32812 0.83984-0.12109 0.30078-0.23828 0.60156-0.37109 0.89844-0.12109 0.28125-0.23828 0.55859-0.35938 0.83984-0.12891 0.30078-0.26172 0.60156-0.39844 0.89844-0.12891 0.28125-0.26172 0.55859-0.39063 0.85156-0.14062 0.30078-0.28906 0.60156-0.42969 0.89844-0.14062 0.28125-0.28125 0.55859-0.42188 0.83984-0.070312 0.14063-0.14844 0.28906-0.21875 0.42969-4.7188-1.1914-9.0195-3.7109-12.488-7.3203-3.5-3.6484-5.9297-8.1719-7.0703-13.148 0.14062-0.078125 0.28906-0.16016 0.42969-0.23828 0.26172-0.14844 0.53125-0.28906 0.78906-0.42969 0.28906-0.16016 0.57812-0.30859 0.87891-0.46094 0.26172-0.12891 0.51953-0.26953 0.78125-0.39844 0.30078-0.14844 0.58984-0.28906 0.89063-0.42969 0.26172-0.12109 0.51953-0.23828 0.76953-0.35938 0.30078-0.14062 0.60156-0.26953 0.89844-0.39844 0.25-0.10938 0.51172-0.21875 0.76172-0.32031 0.30859-0.12891 0.60938-0.25 0.92188-0.37109 0.25-0.10156 0.5-0.19141 0.75-0.28906 0.30859-0.12109 0.62109-0.23047 0.92969-0.32813 0.23828-0.089843 0.48828-0.17187 0.73047-0.25 0.32031-0.10156 0.62891-0.19922 0.94922-0.30078 0.23828-0.070312 0.48047-0.14844 0.71094-0.21875 0.32031-0.089843 0.64063-0.17969 0.96094-0.26953 0.23047-0.058594 0.46094-0.12891 0.69141-0.17969 0.32812-0.078124 0.64844-0.16016 0.98047-0.23047 0.21875-0.050782 0.44141-0.10156 0.67188-0.14844 0.32812-0.070312 0.66016-0.12891 0.98828-0.19141 0.21094-0.039062 0.42969-0.078125 0.64062-0.12109 0.33984-0.058594 0.67188-0.10156 1.0117-0.14844 0.19922-0.03125 0.41016-0.058594 0.60938-0.089844 0.33984-0.039063 0.67969-0.070313 1.0117-0.10938 0.19922-0.019531 0.39844-0.039062 0.58984-0.058594 0.35156-0.03125 0.69141-0.050781 1.0391-0.058594 0.17969-0.011718 0.37109-0.019531 0.55078-0.03125 0.35938-0.011718 0.71875-0.011718 1.0703-0.019531 0.16016 0 0.32812-0.011719 0.5-0.011719 0.39062 0 0.76953 0.019532 1.1602 0.039063 0.12891 0.011719 0.26172 0.011719 0.39062 0.011719 0.51172 0.03125 1.0195 0.070312 1.5195 0.12109 0.050781 0.51953 0.089844 1.0508 0.12109 1.5898 0.011719 0.17969 0.011719 0.35156 0.019531 0.53125 0.011719 0.35938 0.03125 0.71875 0.03125 1.0781 0 0.21875 0 0.42969-0.011718 0.64844 0.003906 0.32422 0.003906 0.65625-0.007813 0.98438zm-47.758 16.789h0.23047c-0.039062 0.050781-0.078125 0.10156-0.12109 0.14844-0.14844 0.19141-0.28906 0.37891-0.44141 0.57812-0.42188 0.55078-0.82812 1.1016-1.2305 1.6484-0.19141 0.26172-0.37109 0.51953-0.55859 0.78125-0.35938 0.51172-0.71094 1.0312-1.0586 1.5508-0.17188 0.26172-0.33984 0.51953-0.51172 0.78125-0.39844 0.62109-0.78906 1.2383-1.1719 1.8711-0.089843 0.14844-0.19141 0.30078-0.28125 0.46094-0.46094 0.78125-0.89844 1.5586-1.3281 2.3516-0.12109 0.21875-0.23047 0.44922-0.35156 0.67188-0.30078 0.57812-0.60156 1.1602-0.89062 1.7383-0.14062 0.28125-0.26953 0.55859-0.39844 0.82813-0.26172 0.55859-0.51172 1.1211-0.76172 1.6797-0.10937 0.26172-0.23047 0.51953-0.33984 0.78906-0.050781 0.12891-0.10938 0.25-0.17188 0.37891l-8.6133-8.9961c4.957-4.6992 11.34-7.2617 18-7.2617zm-13.773 33.992c1.9492-1.8008 4.1211-3.2617 6.3398-4.2695l5.7891 6.0312c-0.96875 2.3516-2.3906 4.6484-4.1406 6.7109-0.35938 0.42188-0.73047 0.82812-1.1094 1.2305-4.4414 4.6211-10 7.2305-14.781 6.9883-0.25-5.0312 2.2695-10.879 6.7305-15.539 0.38281-0.40234 0.77344-0.79297 1.1719-1.1523zm7.5234 13.371c-0.53125 0.62109-1.0703 1.2188-1.6094 1.7812-6.6094 6.8906-14.961 10.699-22.07 10.129-0.55859-7.4609 3.1016-16.219 9.7383-23.141 0.53125-0.55078 1.1016-1.1211 1.6992-1.6719 0.78125-0.71875 1.5898-1.4102 2.4219-2.0508-0.28906 0.28125-0.57031 0.55078-0.85156 0.83984-5.3516 5.5703-8.1719 12.801-7.3711 18.852l0.14062 1.0195 1.0195 0.14844c0.66016 0.089844 1.3281 0.14063 2.0195 0.14063 5.3906 0 11.422-2.8789 16.18-7.8398 0.21875-0.23047 0.42188-0.46094 0.62891-0.69141-0.61719 0.85156-1.2578 1.6836-1.9453 2.4844zm9.5586-10.543-11.738-12.238 1.4492-1.5117 11.75 12.238zm16.621 9.9609-8.6719-9.0312c0.14062-0.058593 0.28125-0.12891 0.42188-0.19922 0.26172-0.12109 0.51172-0.23828 0.76953-0.35937 0.53906-0.25 1.0781-0.51953 1.6094-0.78906 0.26172-0.12891 0.51953-0.26172 0.76953-0.39844 0.60156-0.32031 1.1992-0.64844 1.8008-0.98828 0.17188-0.10156 0.33984-0.19141 0.51172-0.28906 0.76172-0.44922 1.5195-0.91016 2.2695-1.3906 0.17969-0.10938 0.35156-0.23047 0.51953-0.35156 0.57812-0.37891 1.1602-0.76953 1.7305-1.1719 0.23828-0.17188 0.48047-0.33984 0.71875-0.51172 0.51953-0.37109 1.0391-0.76172 1.5508-1.1484 0.23047-0.17188 0.46094-0.35156 0.67969-0.51953 0.60937-0.48047 1.2188-0.96875 1.8086-1.4688l0.32812-0.26953c0.03125-0.019531 0.058594-0.039062 0.078125-0.070312 0.074219 7.0078-2.3672 13.738-6.8945 18.957zm10.258-25.848c-0.96094 1-1.9883 2.0117-3.0508 3-0.69922 0.64844-1.4102 1.2695-2.1289 1.8789-0.23828 0.19922-0.48047 0.39062-0.71875 0.58984-0.48828 0.39844-0.98047 0.80859-1.4688 1.1914-0.28906 0.23047-0.58984 0.44141-0.87891 0.66016-0.44922 0.33984-0.89844 0.67969-1.3594 1.0117-0.32031 0.23047-0.64062 0.44141-0.96875 0.66016-0.44141 0.30078-0.87891 0.60938-1.3203 0.89844-0.33984 0.21875-0.67969 0.42969-1.0195 0.64062-0.42969 0.26953-0.87109 0.53906-1.3086 0.80078-0.35156 0.21094-0.71094 0.39844-1.0586 0.60156-0.42969 0.23828-0.85937 0.48828-1.3008 0.71875-0.35938 0.19141-0.73047 0.37109-1.0898 0.55078-0.42969 0.21875-0.85938 0.42969-1.2891 0.62891-0.37109 0.17188-0.73828 0.33984-1.1211 0.5-0.28906 0.12891-0.57031 0.25-0.85938 0.37109l-16.512-17.199c0.12109-0.32031 0.25-0.64062 0.37891-0.96094 0.16016-0.37891 0.30859-0.76172 0.46875-1.1484 0.19922-0.44922 0.41016-0.91016 0.62109-1.3594 0.17187-0.37891 0.33984-0.76172 0.53125-1.1289 0.21875-0.46094 0.46094-0.91016 0.69141-1.3594 0.19141-0.37109 0.37891-0.73828 0.57812-1.1094 0.25-0.46094 0.51172-0.92188 0.76953-1.3711 0.19922-0.35156 0.39844-0.71094 0.60938-1.0586 0.28125-0.46875 0.57812-0.94141 0.87891-1.4102 0.21094-0.32812 0.41016-0.66016 0.62109-0.98047 0.32812-0.5 0.67188-0.98828 1.0117-1.4805 0.19922-0.28906 0.39062-0.57812 0.60156-0.87109 0.39844-0.55859 0.82812-1.1211 1.25-1.6719 0.16016-0.21094 0.30859-0.42188 0.46875-0.62109 0.58984-0.76172 1.1992-1.5 1.8203-2.2383l0.011719-0.011719c0.94922-1.1016 1.9102-2.1719 2.8594-3.1602 3.8984-4.0703 8.1719-7.5508 12.691-10.398 1.3203 5.1211 3.8984 9.7812 7.5508 13.578 3.6602 3.8086 8.1602 6.5117 13.109 7.8906-2.7578 4.7734-6.1406 9.2656-10.07 13.367z"/>
 <path d="m59.512 28.02c-3.1289 0-6.0703 1.2695-8.2695 3.5703-4.5195 4.7109-4.5195 12.371 0 17.078 2.2109 2.3008 5.1484 3.5703 8.2695 3.5703 3.1289 0 6.0703-1.2695 8.2695-3.5703 4.5195-4.7109 4.5195-12.371 0-17.078-2.2031-2.3086-5.1406-3.5703-8.2695-3.5703zm6.3086 18.75c-1.6914 1.7617-3.9297 2.7305-6.3086 2.7305-2.3789 0-4.6211-0.96875-6.3086-2.7305-3.5195-3.6719-3.5195-9.6289 0-13.301 1.6914-1.7617 3.9297-2.7305 6.3086-2.7305 2.3789 0 4.6211 0.96875 6.3086 2.7305 3.5195 3.6719 3.5195 9.6328 0 13.301z"/>
</svg>