<svg xmlns="http://www.w3.org/2000/svg" xmlns:xlink="http://www.w3.org/1999/xlink" xmlns:serif="http://www.serif.com/" viewBox="0 0 64 80" version="1.1" xml:space="preserve" style="" x="0px" y="0px" fill-rule="evenodd" clip-rule="evenodd" stroke-linejoin="round" stroke-miterlimit="2"><g><path d="M26.832,38.445l-3.63,-5.445c-0,0 3.63,-5.445 3.63,-5.445c0.306,-0.46 0.182,-1.081 -0.277,-1.387c-0.46,-0.306 -1.081,-0.182 -1.387,0.277l-4,6c-0.224,0.336 -0.224,0.774 -0,1.11l4,6c0.306,0.459 0.927,0.583 1.387,0.277c0.459,-0.306 0.583,-0.927 0.277,-1.387Z"/><path d="M38.832,39.555l4,-6c0.224,-0.336 0.224,-0.774 0,-1.11l-4,-6c-0.306,-0.459 -0.927,-0.583 -1.387,-0.277c-0.459,0.306 -0.583,0.927 -0.277,1.387l3.63,5.445c0,-0 -3.63,5.445 -3.63,5.445c-0.306,0.46 -0.182,1.081 0.277,1.387c0.46,0.306 1.081,0.182 1.387,-0.277Z"/><path d="M33.051,26.684l-4,12c-0.174,0.523 0.109,1.09 0.633,1.265c0.523,0.174 1.09,-0.109 1.265,-0.633l4,-12c0.174,-0.523 -0.109,-1.09 -0.633,-1.265c-0.523,-0.174 -1.09,0.109 -1.265,0.633Z"/><path d="M37.707,7.293c-0.187,-0.188 -0.442,-0.293 -0.707,-0.293l-19,0c-0.791,-0 -1.548,0.304 -2.107,0.841c-0.574,0.551 -0.893,1.3 -0.893,2.079l-0,44.16c-0,0.779 0.319,1.528 0.893,2.079c0.559,0.537 1.316,0.841 2.107,0.841l28,0c0.791,0 1.548,-0.304 2.107,-0.841c0.574,-0.551 0.893,-1.3 0.893,-2.079c-0,-0 -0,-35.08 -0,-35.08c-0,-0.265 -0.105,-0.52 -0.293,-0.707l-11,-11Zm9.293,44.707l-0,2.08c0,0.239 -0.102,0.467 -0.278,0.636c-0.191,0.184 -0.452,0.284 -0.722,0.284l-28,-0c-0.27,0 -0.531,-0.1 -0.722,-0.284c-0.176,-0.169 -0.278,-0.397 -0.278,-0.636l-0,-2.08l30,0Zm-11,-43l-18,0c-0.27,-0 -0.531,0.1 -0.722,0.284c-0.176,0.169 -0.278,0.397 -0.278,0.636l-0,40.08l30,0l-0,-30l-8,-0c-0.796,0 -1.559,-0.316 -2.121,-0.879c-0.563,-0.562 -0.879,-1.325 -0.879,-2.121l-0,-8Zm2,1.414l-0,6.586c-0,0.265 0.105,0.52 0.293,0.707c0.187,0.188 0.442,0.293 0.707,0.293l6.586,0l-7.586,-7.586Z"/></g></svg>