<svg width="15" height="14" viewBox="0 0 15 14" fill="none" xmlns="http://www.w3.org/2000/svg">
<path d="M0.617622 1.66819C0.572425 2.67128 0.631261 3.61712 0.772059 4.50496C1.94997 3.36172 5.55402 1.41136 10.547 2.75584L10.6336 0.364551C6.41226 -0.639225 2.4372 0.640048 0.617622 1.66819Z" fill="white"/>
<path d="M14.8073 2.18373C14.1033 1.71552 13.3884 1.33582 12.6719 1.0325C12.8052 2.97659 12.2977 7.57122 9.20089 10.397C9.29274 10.5024 9.82044 10.8634 11.1964 11.4643C13.8369 8.6172 14.7249 4.4593 14.8073 2.18373Z" fill="white"/>
<path d="M7.68539 9.00291C9.73641 7.21038 10.2509 5.30845 10.2517 4.58156C5.49291 3.52105 2.26084 5.40075 1.23965 6.47317C2.54202 10.543 5.53324 13.0855 7.27527 14C8.09435 13.7333 8.83058 13.367 9.49127 12.9257C6.52025 11.4349 4.44349 8.5234 3.77649 7.254L5.56849 6.28611C6.15508 7.80719 7.22417 8.73109 7.68539 9.00291Z" fill="white"/>
</svg>
